<svg width="90" height="101" viewBox="0 0 90 101" fill="none" xmlns="http://www.w3.org/2000/svg">
<path d="M89.4788 11.1042H81.8538V15.9542C81.8538 23.1674 78.7413 30.0032 73.3703 34.694L72.2682 35.5975L53.0568 50.5L72.2682 65.4023L73.3703 66.3061C78.7413 70.997 81.8538 77.8326 81.8538 85.0458V89.8958H89.4788V100.062H0.520508V89.8958H8.14551V85.0458C8.14551 77.3532 11.6869 70.0937 17.7314 65.4023L36.938 50.5L17.7314 35.5975C11.6869 30.9064 8.14551 23.6468 8.14551 15.9542V11.1042H0.520508V0.9375H89.4788V11.1042ZM17.9746 11.1042V15.9542C17.9746 20.5705 20.1004 24.9296 23.7281 27.7442L44.9997 44.245L66.2714 27.7442L66.9363 27.1931C70.1576 24.3787 72.0247 20.2808 72.0247 15.9542V11.1042H17.9746Z" fill="#FCD404"/>
</svg>
