<svg width="152" height="35" viewBox="0 0 152 35" fill="none" xmlns="http://www.w3.org/2000/svg">
<path d="M31.4285 0.476074H1.35449V9.88214H31.4285V0.476074Z" fill="#FED402"/>
<path d="M32.7863 16.4575L3.53125 7.43506L-0.000199157 18.8858L29.2549 27.9082L32.7863 16.4575Z" fill="#FED402"/>
<path d="M31.4285 25.4624H1.35449V34.8685H31.4285V25.4624Z" fill="#FED402"/>
<path d="M37.3781 23.9986L39.7337 21.1964C41.8681 23.0441 43.9984 24.0928 46.7678 24.0928C49.189 24.0928 50.7129 22.9785 50.7129 21.2907V21.2251C50.7129 19.6356 49.8198 18.7753 45.6822 17.8207C40.9382 16.6737 38.2671 15.2726 38.2671 11.1677V11.1021C38.2671 7.28398 41.4503 4.6416 45.8747 4.6416C49.1234 4.6416 51.7002 5.62891 53.9575 7.44376L51.8559 10.4057C49.8526 8.91038 47.8452 8.11562 45.8092 8.11562C43.5191 8.11562 42.1795 9.29137 42.1795 10.758V10.8235C42.1795 12.5442 43.1996 13.3062 47.4642 14.3262C52.1755 15.4733 54.6253 17.1612 54.6253 20.8523V20.9179C54.6253 25.0883 51.3479 27.5709 46.6695 27.5709C43.2651 27.5709 40.0492 26.3952 37.374 24.0068L37.3781 23.9986Z" fill="white"/>
<path d="M57.2061 10.4386H61.057V13.2407C62.2983 11.4914 64.0476 10.0903 66.7555 10.0903C70.7334 10.0903 74.5843 13.2407 74.5843 18.8122V18.8778C74.5843 24.4493 70.7662 27.5997 66.7555 27.5997C63.9861 27.5997 62.2368 26.1986 61.057 24.6378V32.3396H57.2061V10.4386ZM70.672 18.8737V18.8081C70.672 15.5594 68.4761 13.4292 65.8665 13.4292C63.2569 13.4292 60.9627 15.5922 60.9627 18.8081V18.8737C60.9627 22.1183 63.2528 24.2527 65.8665 24.2527C68.4802 24.2527 70.672 22.1838 70.672 18.8737Z" fill="white"/>
<path d="M77.165 4.01074H81.0159V27.2473H77.165V4.01074Z" fill="white"/>
<path d="M83.5312 18.9071V18.8416C83.5312 14.0361 86.9356 10.0869 91.7452 10.0869C97.0914 10.0869 99.7993 14.2901 99.7993 19.1284C99.7993 19.4766 99.7665 19.8289 99.7338 20.2099H87.3822C87.7959 22.9465 89.7378 24.4746 92.2204 24.4746C94.0967 24.4746 95.4363 23.774 96.7718 22.4672L99.0332 24.4746C97.4437 26.3837 95.2438 27.625 92.1589 27.625C87.2879 27.625 83.5312 24.0936 83.5312 18.903V18.9071ZM95.9771 17.6658C95.7231 15.1832 94.2565 13.2414 91.7124 13.2414C89.3568 13.2414 87.7017 15.0562 87.3535 17.6658H95.9812H95.9771Z" fill="white"/>
<path d="M102.09 10.4392H105.941V13.0488C107.022 11.4593 108.583 10.0869 111.193 10.0869C114.982 10.0869 117.178 12.6351 117.178 16.5474V27.244H113.327V17.6945C113.327 15.0849 112.02 13.5896 109.73 13.5896C107.44 13.5896 105.941 15.1505 105.941 17.7601V27.244H102.09V10.4392Z" fill="white"/>
<path d="M119.309 18.9071V18.8416C119.309 14.0361 122.713 10.0869 127.523 10.0869C132.869 10.0869 135.577 14.2901 135.577 19.1284C135.577 19.4766 135.544 19.8289 135.511 20.2099H123.16C123.573 22.9465 125.515 24.4746 127.998 24.4746C129.874 24.4746 131.214 23.774 132.549 22.4672L134.811 24.4746C133.221 26.3837 131.021 27.625 127.936 27.625C123.065 27.625 119.309 24.0936 119.309 18.903V18.9071ZM131.754 17.6658C131.5 15.1832 130.034 13.2414 127.49 13.2414C125.134 13.2414 123.479 15.0562 123.131 17.6658H131.759H131.754Z" fill="white"/>
<path d="M141.623 18.7182L135.67 10.4429H139.874L143.757 15.9816L147.641 10.4429H151.746L145.793 18.624L152 27.2517H147.797L143.659 21.3647L139.554 27.2517H135.449L141.623 18.7223V18.7182Z" fill="white"/>
<path d="M70.213 32.0648C70.3031 32.1918 70.3482 32.3474 70.3482 32.5359C70.3482 32.9046 70.2048 33.1873 69.9221 33.3839C69.6395 33.5806 69.2503 33.6789 68.7587 33.6789H66.9971L67.7304 30.0205H69.3527C69.7214 30.0205 70.0082 30.0902 70.2089 30.2253C70.4096 30.3646 70.508 30.5613 70.508 30.8235C70.508 31.0611 70.4465 31.2618 70.3236 31.4257C70.2007 31.5896 70.0368 31.7125 69.8361 31.7903C70 31.8476 70.127 31.9378 70.2171 32.0607L70.213 32.0648ZM69.5616 33.0685C69.7419 32.9456 69.832 32.7694 69.832 32.54C69.832 32.3597 69.7665 32.2286 69.6395 32.1549C69.5125 32.0771 69.3199 32.0402 69.0659 32.0402H67.841L67.5993 33.2569H68.7914C69.1233 33.2569 69.3773 33.1955 69.5575 33.0726L69.5616 33.0685ZM68.1646 30.4425L67.9311 31.6141H69.0045C69.2994 31.6141 69.5329 31.5527 69.7091 31.4339C69.8812 31.3151 69.9672 31.1389 69.9672 30.9095C69.9672 30.7538 69.9057 30.635 69.7828 30.5613C69.6599 30.4834 69.4797 30.4466 69.2462 30.4466H68.1687L68.1646 30.4425Z" fill="white"/>
<path d="M71.4995 33.5611C71.3028 33.4628 71.1512 33.3235 71.0447 33.1391C70.9382 32.9589 70.8809 32.7499 70.8809 32.5123C70.8809 32.201 70.9505 31.9224 71.0898 31.6766C71.2291 31.4308 71.4216 31.2342 71.6715 31.0949C71.9214 30.9556 72.1959 30.8818 72.5073 30.8818C72.7694 30.8818 72.9989 30.931 73.1914 31.0293C73.388 31.1276 73.5355 31.2669 73.642 31.4431C73.7486 31.6233 73.8018 31.8323 73.8018 32.074C73.8018 32.3853 73.7322 32.6639 73.5929 32.9138C73.4536 33.1637 73.261 33.3563 73.0152 33.4996C72.7694 33.6389 72.4909 33.7127 72.1795 33.7127C71.9173 33.7127 71.692 33.6635 71.4954 33.5652L71.4995 33.5611ZM72.7694 33.1227C72.9333 33.0244 73.0644 32.8851 73.1545 32.709C73.2447 32.5328 73.2938 32.328 73.2938 32.1027C73.2938 31.8569 73.2242 31.6643 73.0808 31.5291C72.9374 31.3939 72.7326 31.3243 72.4704 31.3243C72.2655 31.3243 72.0812 31.3734 71.9173 31.4718C71.7535 31.5701 71.6265 31.7094 71.5322 31.8855C71.438 32.0617 71.3929 32.2665 71.3929 32.4918C71.3929 32.7336 71.4667 32.9261 71.6101 33.0654C71.7535 33.2047 71.9583 33.2702 72.2205 33.2702C72.4253 33.2702 72.6097 33.2211 72.7776 33.1227H72.7694Z" fill="white"/>
<path d="M75.6044 30.9877C75.7806 30.918 75.9977 30.8853 76.2517 30.8853L76.1574 31.3728C76.1247 31.3728 76.0837 31.3687 76.0264 31.3687C75.4528 31.3687 75.1046 31.68 74.9817 32.2986L74.7031 33.6833H74.1992L74.7482 30.9139H75.2275L75.1497 31.3277C75.2726 31.1761 75.42 31.0614 75.6003 30.9918L75.6044 30.9877Z" fill="white"/>
<path d="M79.6681 29.8003L78.8938 33.6799H78.4145L78.4841 33.3399C78.3571 33.4587 78.2137 33.5488 78.0458 33.6143C77.8819 33.6799 77.7016 33.7127 77.505 33.7127C77.2674 33.7127 77.0585 33.6635 76.8741 33.5693C76.6897 33.475 76.5464 33.3358 76.4399 33.1555C76.3374 32.9752 76.2842 32.7622 76.2842 32.5164C76.2842 32.201 76.3538 31.9224 76.489 31.6766C76.6242 31.4308 76.8127 31.2341 77.0503 31.0949C77.2879 30.9556 77.5583 30.8859 77.8532 30.8859C78.0908 30.8859 78.2957 30.9269 78.4677 31.0129C78.6398 31.099 78.7709 31.2219 78.8569 31.3857L79.1724 29.8003H79.6722H79.6681ZM78.1687 33.1227C78.3325 33.0244 78.4636 32.8851 78.5538 32.709C78.6439 32.5328 78.693 32.328 78.693 32.1026C78.693 31.8568 78.6234 31.6643 78.48 31.5291C78.3366 31.3939 78.1318 31.3243 77.8696 31.3243C77.6648 31.3243 77.4804 31.3734 77.3165 31.4718C77.1527 31.5701 77.0257 31.7094 76.9315 31.8855C76.8372 32.0617 76.7922 32.2665 76.7922 32.4918C76.7922 32.7335 76.8659 32.9261 77.0093 33.0654C77.1527 33.2047 77.3575 33.2702 77.6197 33.2702C77.8245 33.2702 78.0089 33.2211 78.1769 33.1227H78.1687Z" fill="white"/>
<path d="M80.3361 32.4506V32.4834C80.3361 32.7414 80.4099 32.9381 80.5574 33.0733C80.7048 33.2085 80.922 33.274 81.2169 33.274C81.389 33.274 81.5488 33.2453 81.6962 33.188C81.8478 33.1306 81.9707 33.0528 82.0731 32.9545L82.2862 33.315C82.151 33.442 81.983 33.5362 81.7905 33.6059C81.5979 33.6755 81.389 33.7083 81.176 33.7083C80.9056 33.7083 80.668 33.6591 80.4713 33.5608C80.2747 33.4625 80.119 33.3232 80.0125 33.1429C79.906 32.9627 79.8486 32.7496 79.8486 32.5038C79.8486 32.1925 79.9142 31.9139 80.0494 31.6681C80.1846 31.4223 80.3689 31.2257 80.6106 31.0864C80.8482 30.9471 81.1186 30.8774 81.4136 30.8774C81.7905 30.8774 82.0895 30.984 82.3149 31.197C82.5402 31.41 82.6508 31.705 82.6508 32.0737C82.6508 32.1843 82.6385 32.3072 82.6139 32.4465H80.3402L80.3361 32.4506ZM80.7499 31.5124C80.5738 31.6517 80.4508 31.8443 80.3894 32.086H82.1756C82.1879 31.8402 82.1223 31.6476 81.9789 31.5083C81.8355 31.369 81.6348 31.3035 81.3849 31.3035C81.135 31.3035 80.9261 31.3731 80.7458 31.5124H80.7499Z" fill="white"/>
<path d="M84.4452 30.9877C84.6214 30.918 84.8385 30.8853 85.0925 30.8853L84.9983 31.3728C84.9655 31.3728 84.9245 31.3687 84.8672 31.3687C84.2936 31.3687 83.9454 31.68 83.8225 32.2986L83.5439 33.6833H83.04L83.589 30.9139H84.0683L83.9905 31.3277C84.1134 31.1761 84.2609 31.0614 84.4411 30.9918L84.4452 30.9877Z" fill="white"/>
<path d="M85.9239 29.8003H86.4237L85.6494 33.6799H85.1455L85.9198 29.8003H85.9239Z" fill="white"/>
<path d="M87.091 32.4506V32.4834C87.091 32.7414 87.1648 32.9381 87.3123 33.0733C87.4597 33.2085 87.6769 33.274 87.9718 33.274C88.1439 33.274 88.3037 33.2453 88.4511 33.188C88.6027 33.1306 88.7256 33.0528 88.828 32.9545L89.0411 33.315C88.9059 33.442 88.7379 33.5362 88.5454 33.6059C88.3528 33.6755 88.1439 33.7083 87.9309 33.7083C87.6605 33.7083 87.4229 33.6591 87.2262 33.5608C87.0296 33.4625 86.8739 33.3232 86.7674 33.1429C86.6609 32.9627 86.6035 32.7496 86.6035 32.5038C86.6035 32.1925 86.6691 31.9139 86.8043 31.6681C86.9394 31.4223 87.1238 31.2257 87.3655 31.0864C87.6031 30.9471 87.8735 30.8774 88.1685 30.8774C88.5454 30.8774 88.8444 30.984 89.0697 31.197C89.2951 31.41 89.4057 31.705 89.4057 32.0737C89.4057 32.1843 89.3934 32.3072 89.3688 32.4465H87.0951L87.091 32.4506ZM87.5048 31.5124C87.3286 31.6517 87.2057 31.8443 87.1443 32.086H88.9305C88.9427 31.8402 88.8772 31.6476 88.7338 31.5083C88.5904 31.369 88.3897 31.3035 88.1398 31.3035C87.8899 31.3035 87.681 31.3731 87.5007 31.5124H87.5048Z" fill="white"/>
<path d="M90.0166 33.6225C89.8077 33.5652 89.6479 33.4873 89.5332 33.3931L89.7585 32.9957C89.865 33.0818 90.0084 33.1514 90.1805 33.2006C90.3525 33.2497 90.5328 33.2743 90.7212 33.2743C90.9589 33.2743 91.1391 33.2374 91.262 33.1678C91.3849 33.0982 91.4464 32.9957 91.4464 32.8687C91.4464 32.7663 91.3972 32.6885 91.2989 32.6434C91.2006 32.5984 91.0449 32.5533 90.836 32.5082C90.6393 32.4673 90.4795 32.4222 90.3566 32.3812C90.2337 32.3403 90.1272 32.2665 90.0412 32.1723C89.9552 32.0781 89.9101 31.947 89.9101 31.7831C89.9101 31.6029 89.9593 31.4431 90.0658 31.3079C90.1723 31.1727 90.3157 31.0662 90.5041 30.9924C90.6926 30.9187 90.9138 30.8818 91.1637 30.8818C91.348 30.8818 91.5283 30.9064 91.7004 30.9515C91.8724 30.9965 92.0158 31.058 92.1305 31.1358L91.9298 31.5332C91.8233 31.4595 91.6963 31.4062 91.5529 31.3693C91.4095 31.3325 91.262 31.3161 91.1145 31.3161C90.8892 31.3161 90.7131 31.353 90.5902 31.4267C90.4673 31.5004 90.4058 31.6029 90.4058 31.7258C90.4058 31.8364 90.455 31.9183 90.5574 31.9634C90.6598 32.0084 90.8155 32.0576 91.0285 32.1027C91.221 32.1436 91.3767 32.1846 91.4996 32.2297C91.6225 32.2706 91.7249 32.3403 91.811 32.4345C91.897 32.5287 91.938 32.6557 91.938 32.8155C91.938 33.0982 91.8233 33.3194 91.5898 33.4751C91.3562 33.6307 91.049 33.7127 90.668 33.7127C90.4386 33.7127 90.2215 33.684 90.0125 33.6225H90.0166Z" fill="white"/>
<path d="M92.6348 33.6225C92.4258 33.5652 92.2661 33.4873 92.1514 33.3931L92.3767 32.9957C92.4832 33.0818 92.6266 33.1514 92.7986 33.2006C92.9707 33.2497 93.151 33.2743 93.3394 33.2743C93.577 33.2743 93.7573 33.2374 93.8802 33.1678C94.0031 33.0982 94.0645 32.9957 94.0645 32.8687C94.0645 32.7663 94.0154 32.6885 93.9171 32.6434C93.8187 32.5984 93.6631 32.5533 93.4541 32.5082C93.2575 32.4673 93.0977 32.4222 92.9748 32.3812C92.8519 32.3403 92.7454 32.2665 92.6594 32.1723C92.5733 32.0781 92.5283 31.947 92.5283 31.7831C92.5283 31.6029 92.5774 31.4431 92.6839 31.3079C92.7905 31.1727 92.9338 31.0662 93.1223 30.9924C93.3107 30.9187 93.532 30.8818 93.7819 30.8818C93.9662 30.8818 94.1465 30.9064 94.3185 30.9515C94.4906 30.9965 94.634 31.058 94.7487 31.1358L94.5479 31.5332C94.4414 31.4595 94.3144 31.4062 94.171 31.3693C94.0277 31.3325 93.8802 31.3161 93.7327 31.3161C93.5074 31.3161 93.3312 31.353 93.2083 31.4267C93.0854 31.5004 93.024 31.6029 93.024 31.7258C93.024 31.8364 93.0731 31.9183 93.1755 31.9634C93.278 32.0084 93.4336 32.0576 93.6467 32.1027C93.8392 32.1436 93.9949 32.1846 94.1178 32.2297C94.2407 32.2706 94.3431 32.3403 94.4291 32.4345C94.5152 32.5287 94.5561 32.6557 94.5561 32.8155C94.5561 33.0982 94.4414 33.3194 94.2079 33.4751C93.9744 33.6307 93.6672 33.7127 93.2862 33.7127C93.0567 33.7127 92.8396 33.684 92.6307 33.6225H92.6348Z" fill="white"/>
<path d="M97.1857 32.795C97.1734 32.8483 97.1693 32.8974 97.1693 32.9425C97.1693 33.0531 97.198 33.1391 97.2595 33.1965C97.3209 33.2538 97.411 33.2866 97.5339 33.2866C97.6814 33.2866 97.8125 33.2415 97.9313 33.1555L98.0337 33.5365C97.8658 33.6512 97.6527 33.7086 97.3906 33.7086C97.1693 33.7086 96.9932 33.6471 96.8621 33.5242C96.731 33.4013 96.6613 33.2293 96.6613 33.0162C96.6613 32.9425 96.6695 32.8728 96.6818 32.8073L96.9809 31.3243H96.5098L96.5876 30.9105H97.0628L97.1816 30.3042H97.6814L97.5626 30.9105H98.3574L98.2754 31.3243H97.4807L97.1816 32.7991L97.1857 32.795Z" fill="white"/>
<path d="M100.009 30.9877C100.185 30.918 100.402 30.8853 100.656 30.8853L100.562 31.3728C100.529 31.3728 100.488 31.3687 100.431 31.3687C99.8571 31.3687 99.5089 31.68 99.386 32.2986L99.1074 33.6833H98.6035L99.1525 30.9139H99.6318L99.554 31.3277C99.6769 31.1761 99.8243 31.0614 100.005 30.9918L100.009 30.9877Z" fill="white"/>
<path d="M103.843 30.9098L103.294 33.6792H102.815L102.885 33.3392C102.758 33.458 102.614 33.5481 102.446 33.6137C102.282 33.6792 102.102 33.712 101.905 33.712C101.668 33.712 101.459 33.6628 101.274 33.5686C101.09 33.4744 100.947 33.3351 100.84 33.1548C100.738 32.9746 100.685 32.7615 100.685 32.5157C100.685 32.2003 100.754 31.9217 100.889 31.6759C101.025 31.4301 101.213 31.2335 101.451 31.0942C101.688 30.9549 101.959 30.8853 102.254 30.8853C102.491 30.8853 102.692 30.9262 102.864 31.0123C103.032 31.0942 103.163 31.2212 103.253 31.3851L103.347 30.9139H103.847L103.843 30.9098ZM102.569 33.1221C102.733 33.0237 102.864 32.8844 102.954 32.7083C103.044 32.5321 103.093 32.3273 103.093 32.102C103.093 31.8562 103.024 31.6636 102.88 31.5284C102.737 31.3932 102.532 31.3236 102.27 31.3236C102.065 31.3236 101.881 31.3728 101.717 31.4711C101.553 31.5694 101.426 31.7087 101.332 31.8849C101.238 32.061 101.193 32.2658 101.193 32.4912C101.193 32.7329 101.266 32.9254 101.41 33.0647C101.553 33.204 101.758 33.2695 102.02 33.2695C102.225 33.2695 102.409 33.2204 102.577 33.1221H102.569Z" fill="white"/>
<path d="M107.632 29.8003L106.858 33.6799H106.378L106.448 33.3399C106.321 33.4587 106.178 33.5488 106.01 33.6143C105.846 33.6799 105.666 33.7127 105.469 33.7127C105.231 33.7127 105.022 33.6635 104.838 33.5693C104.654 33.475 104.51 33.3358 104.404 33.1555C104.301 32.9752 104.248 32.7622 104.248 32.5164C104.248 32.201 104.318 31.9224 104.453 31.6766C104.588 31.4308 104.777 31.2341 105.014 31.0949C105.252 30.9556 105.522 30.8859 105.817 30.8859C106.055 30.8859 106.26 30.9269 106.432 31.0129C106.604 31.099 106.735 31.2219 106.821 31.3857L107.136 29.8003H107.636H107.632ZM106.133 33.1227C106.296 33.0244 106.428 32.8851 106.518 32.709C106.608 32.5328 106.657 32.328 106.657 32.1026C106.657 31.8568 106.587 31.6643 106.444 31.5291C106.3 31.3939 106.096 31.3243 105.833 31.3243C105.629 31.3243 105.444 31.3734 105.28 31.4718C105.117 31.5701 104.99 31.7094 104.895 31.8855C104.801 32.0617 104.756 32.2665 104.756 32.4918C104.756 32.7335 104.83 32.9261 104.973 33.0654C105.117 33.2047 105.321 33.2702 105.584 33.2702C105.788 33.2702 105.973 33.2211 106.141 33.1227H106.133Z" fill="white"/>
<path d="M108.362 30.9097H108.861L108.312 33.6791H107.809L108.358 30.9097H108.362ZM108.538 30.287C108.48 30.2297 108.448 30.1559 108.448 30.074C108.448 29.9757 108.48 29.8937 108.55 29.8241C108.62 29.7545 108.706 29.7217 108.808 29.7217C108.898 29.7217 108.976 29.7504 109.034 29.8077C109.095 29.8651 109.124 29.9347 109.124 30.0125C109.124 30.1191 109.091 30.2092 109.021 30.2747C108.952 30.3403 108.866 30.3731 108.759 30.3731C108.669 30.3731 108.595 30.3444 108.534 30.2829L108.538 30.287Z" fill="white"/>
<path d="M111.979 31.1235C112.156 31.2833 112.242 31.5086 112.242 31.8036C112.242 31.906 112.229 32.0125 112.209 32.1272L111.902 33.6799H111.402L111.709 32.1272C111.725 32.033 111.734 31.9552 111.734 31.8978C111.734 31.7176 111.68 31.5783 111.57 31.48C111.459 31.3816 111.303 31.3325 111.09 31.3325C110.82 31.3325 110.595 31.4062 110.419 31.5537C110.242 31.7012 110.124 31.9224 110.066 32.2133L109.775 33.6758H109.271L109.82 30.9064H110.3L110.23 31.2628C110.48 31.0088 110.816 30.8818 111.234 30.8818C111.549 30.8818 111.799 30.9638 111.975 31.1235H111.979Z" fill="white"/>
<path d="M116.047 30.9099L115.572 33.3024C115.473 33.7981 115.289 34.1586 115.018 34.3839C114.748 34.6093 114.379 34.724 113.912 34.724C113.65 34.724 113.413 34.6912 113.195 34.6215C112.978 34.5519 112.798 34.4577 112.646 34.3307L112.925 33.9456C113.036 34.048 113.183 34.1258 113.363 34.1873C113.544 34.2487 113.74 34.2774 113.953 34.2774C114.273 34.2774 114.523 34.2037 114.699 34.0562C114.875 33.9087 114.994 33.6834 115.055 33.3761L115.096 33.1795C114.83 33.4335 114.498 33.5605 114.093 33.5605C113.847 33.5605 113.634 33.5154 113.445 33.4253C113.257 33.3352 113.114 33.2041 113.011 33.032C112.909 32.86 112.855 32.6592 112.855 32.4298C112.855 32.1389 112.921 31.8767 113.056 31.6391C113.191 31.4015 113.376 31.2172 113.617 31.0779C113.859 30.9427 114.129 30.873 114.433 30.873C114.67 30.873 114.879 30.9181 115.064 31.0082C115.248 31.0984 115.383 31.2295 115.469 31.4097L115.567 30.9017H116.043L116.047 30.9099ZM114.752 32.987C114.916 32.8927 115.047 32.7657 115.137 32.6019C115.232 32.438 115.277 32.2495 115.277 32.0406C115.277 31.8194 115.203 31.6432 115.059 31.5162C114.916 31.3892 114.711 31.3237 114.449 31.3237C114.24 31.3237 114.052 31.3688 113.888 31.463C113.724 31.5572 113.593 31.6842 113.503 31.8481C113.408 32.0119 113.363 32.2004 113.363 32.4052C113.363 32.6305 113.437 32.8108 113.585 32.9337C113.732 33.0607 113.933 33.1262 114.191 33.1262C114.4 33.1262 114.588 33.0812 114.752 32.987Z" fill="white"/>
<path d="M122.536 31.1194C122.712 31.2792 122.798 31.5045 122.798 31.7954C122.798 31.8773 122.786 31.9839 122.761 32.1231L122.454 33.6758H121.954L122.261 32.1231C122.278 32.0248 122.286 31.947 122.286 31.8814C122.286 31.7012 122.237 31.5619 122.134 31.4677C122.032 31.3734 121.88 31.3284 121.675 31.3284C121.417 31.3284 121.204 31.4021 121.04 31.5455C120.877 31.6889 120.762 31.906 120.704 32.1969L120.405 33.6758H119.906L120.221 32.1231C120.237 32.0289 120.246 31.9511 120.246 31.8896C120.246 31.7094 120.192 31.5701 120.09 31.4759C119.988 31.3816 119.832 31.3325 119.627 31.3325C119.369 31.3325 119.156 31.4062 118.992 31.5537C118.828 31.7012 118.713 31.9224 118.656 32.2174L118.365 33.6799H117.861L118.41 30.9105H118.89L118.82 31.2546C119.066 31.0088 119.385 30.8818 119.783 30.8818C120 30.8818 120.184 30.9228 120.336 31.0088C120.487 31.0908 120.602 31.2137 120.672 31.3734C120.954 31.0457 121.331 30.8818 121.798 30.8818C122.114 30.8818 122.355 30.9597 122.532 31.1194H122.536Z" fill="white"/>
<path d="M126.555 30.9098L126.006 33.6792H125.527L125.596 33.3392C125.469 33.458 125.326 33.5481 125.158 33.6137C124.994 33.6792 124.814 33.712 124.617 33.712C124.38 33.712 124.171 33.6628 123.986 33.5686C123.802 33.4744 123.659 33.3351 123.552 33.1548C123.45 32.9746 123.396 32.7615 123.396 32.5157C123.396 32.2003 123.466 31.9217 123.601 31.6759C123.737 31.4301 123.925 31.2335 124.163 31.0942C124.4 30.9549 124.671 30.8853 124.966 30.8853C125.203 30.8853 125.404 30.9262 125.576 31.0123C125.744 31.0942 125.875 31.2212 125.965 31.3851L126.059 30.9139H126.559L126.555 30.9098ZM125.285 33.1221C125.449 33.0237 125.58 32.8844 125.67 32.7083C125.76 32.5321 125.809 32.3273 125.809 32.102C125.809 31.8562 125.74 31.6636 125.596 31.5284C125.453 31.3932 125.248 31.3236 124.986 31.3236C124.781 31.3236 124.597 31.3728 124.433 31.4711C124.269 31.5694 124.142 31.7087 124.048 31.8849C123.954 32.061 123.909 32.2658 123.909 32.4912C123.909 32.7329 123.982 32.9254 124.126 33.0647C124.269 33.204 124.474 33.2695 124.736 33.2695C124.941 33.2695 125.125 33.2204 125.293 33.1221H125.285Z" fill="white"/>
<path d="M128.366 30.9877C128.542 30.918 128.759 30.8853 129.013 30.8853L128.919 31.3728C128.886 31.3728 128.845 31.3687 128.788 31.3687C128.215 31.3687 127.866 31.68 127.743 32.2986L127.465 33.6833H126.961L127.51 30.9139H127.989L127.911 31.3277C128.034 31.1761 128.182 31.0614 128.362 30.9918L128.366 30.9877Z" fill="white"/>
<path d="M130.799 32.074L131.787 33.6799H131.205L130.406 32.373L129.726 32.9015L129.57 33.6799H129.066L129.841 29.8003H130.34L129.849 32.2665L131.57 30.9064H132.274L130.795 32.0699L130.799 32.074Z" fill="white"/>
<path d="M132.61 32.4506V32.4834C132.61 32.7414 132.683 32.9381 132.831 33.0733C132.978 33.2085 133.195 33.274 133.49 33.274C133.662 33.274 133.822 33.2453 133.97 33.188C134.121 33.1306 134.244 33.0528 134.347 32.9545L134.56 33.315C134.424 33.442 134.256 33.5362 134.064 33.6059C133.871 33.6755 133.662 33.7083 133.449 33.7083C133.179 33.7083 132.941 33.6591 132.745 33.5608C132.548 33.4625 132.392 33.3232 132.286 33.1429C132.179 32.9627 132.122 32.7496 132.122 32.5038C132.122 32.1925 132.188 31.9139 132.323 31.6681C132.458 31.4223 132.642 31.2257 132.884 31.0864C133.122 30.9471 133.392 30.8774 133.687 30.8774C134.064 30.8774 134.363 30.984 134.588 31.197C134.814 31.41 134.924 31.705 134.924 32.0737C134.924 32.1843 134.912 32.3072 134.887 32.4465H132.614L132.61 32.4506ZM133.019 31.5124C132.843 31.6517 132.72 31.8443 132.659 32.086H134.445C134.457 31.8402 134.392 31.6476 134.248 31.5083C134.105 31.369 133.904 31.3035 133.654 31.3035C133.404 31.3035 133.195 31.3731 133.015 31.5124H133.019Z" fill="white"/>
<path d="M136.06 32.795C136.047 32.8483 136.043 32.8974 136.043 32.9425C136.043 33.0531 136.072 33.1391 136.133 33.1965C136.195 33.2538 136.285 33.2866 136.408 33.2866C136.555 33.2866 136.687 33.2415 136.805 33.1555L136.908 33.5365C136.74 33.6512 136.527 33.7086 136.265 33.7086C136.043 33.7086 135.867 33.6471 135.736 33.5242C135.605 33.4013 135.535 33.2293 135.535 33.0162C135.535 32.9425 135.544 32.8728 135.556 32.8073L135.855 31.3243H135.384L135.462 30.9105H135.937L136.056 30.3042H136.555L136.437 30.9105H137.231L137.149 31.3243H136.355L136.056 32.7991L136.06 32.795Z" fill="white"/>
<path d="M140.05 31.0249C140.234 31.1191 140.378 31.2584 140.484 31.4387C140.587 31.6189 140.64 31.832 140.64 32.0737C140.64 32.3891 140.57 32.6677 140.435 32.9135C140.3 33.1593 140.111 33.356 139.874 33.4952C139.636 33.6345 139.366 33.7083 139.071 33.7083C138.833 33.7083 138.628 33.6673 138.46 33.5813C138.288 33.4952 138.157 33.3723 138.067 33.2085L137.776 34.6915H137.276L138.03 30.9061H138.509L138.44 31.2502C138.698 31.0044 139.022 30.8774 139.419 30.8774C139.657 30.8774 139.865 30.9266 140.05 31.0208V31.0249ZM139.607 33.1224C139.771 33.0241 139.898 32.8848 139.992 32.7087C140.087 32.5325 140.132 32.3277 140.132 32.1024C140.132 31.8566 140.062 31.664 139.919 31.5288C139.775 31.3936 139.571 31.324 139.308 31.324C139.103 31.324 138.915 31.3731 138.751 31.4715C138.587 31.5698 138.456 31.7091 138.366 31.8852C138.272 32.0614 138.227 32.2662 138.227 32.4915C138.227 32.7333 138.301 32.9258 138.444 33.0651C138.587 33.2044 138.792 33.2699 139.054 33.2699C139.259 33.2699 139.444 33.2208 139.607 33.1224Z" fill="white"/>
<path d="M141.815 29.8003H142.315L141.541 33.6799H141.037L141.811 29.8003H141.815Z" fill="white"/>
<path d="M145.658 30.9098L145.109 33.6792H144.629L144.699 33.3392C144.572 33.458 144.429 33.5481 144.261 33.6137C144.097 33.6792 143.916 33.712 143.72 33.712C143.482 33.712 143.273 33.6628 143.089 33.5686C142.905 33.4744 142.761 33.3351 142.655 33.1548C142.552 32.9746 142.499 32.7615 142.499 32.5157C142.499 32.2003 142.569 31.9217 142.704 31.6759C142.839 31.4301 143.027 31.2335 143.265 31.0942C143.503 30.9549 143.773 30.8853 144.068 30.8853C144.306 30.8853 144.506 30.9262 144.678 31.0123C144.846 31.0942 144.978 31.2212 145.068 31.3851L145.162 30.9139H145.662L145.658 30.9098ZM144.384 33.1221C144.547 33.0237 144.678 32.8844 144.769 32.7083C144.859 32.5321 144.908 32.3273 144.908 32.102C144.908 31.8562 144.838 31.6636 144.695 31.5284C144.551 31.3932 144.347 31.3236 144.084 31.3236C143.88 31.3236 143.695 31.3728 143.531 31.4711C143.368 31.5694 143.241 31.7087 143.146 31.8849C143.052 32.061 143.007 32.2658 143.007 32.4912C143.007 32.7329 143.081 32.9254 143.224 33.0647C143.368 33.204 143.572 33.2695 143.835 33.2695C144.039 33.2695 144.224 33.2204 144.392 33.1221H144.384Z" fill="white"/>
<path d="M146.682 33.5611C146.486 33.4628 146.33 33.3235 146.223 33.1432C146.117 32.963 146.06 32.754 146.06 32.5123C146.06 32.201 146.129 31.9224 146.269 31.6766C146.408 31.4308 146.6 31.2342 146.85 31.0949C147.1 30.9556 147.379 30.8818 147.69 30.8818C148.235 30.8818 148.616 31.0826 148.829 31.4841L148.407 31.7176C148.26 31.4513 148.01 31.3202 147.653 31.3202C147.448 31.3202 147.26 31.3693 147.096 31.4677C146.932 31.566 146.801 31.7053 146.707 31.8814C146.613 32.0576 146.568 32.2624 146.568 32.4877C146.568 32.7295 146.641 32.922 146.785 33.0613C146.928 33.2006 147.133 33.2661 147.399 33.2661C147.567 33.2661 147.723 33.2334 147.866 33.1678C148.01 33.1023 148.128 33.0039 148.223 32.8769L148.587 33.1391C148.46 33.3153 148.284 33.4546 148.071 33.557C147.854 33.6594 147.625 33.7086 147.375 33.7086C147.108 33.7086 146.879 33.6594 146.678 33.5611H146.682Z" fill="white"/>
<path d="M149.496 32.4506V32.4834C149.496 32.7414 149.57 32.9381 149.718 33.0733C149.865 33.2085 150.082 33.274 150.377 33.274C150.549 33.274 150.709 33.2453 150.856 33.188C151.008 33.1306 151.131 33.0528 151.233 32.9545L151.446 33.315C151.311 33.442 151.143 33.5362 150.951 33.6059C150.758 33.6755 150.549 33.7083 150.336 33.7083C150.066 33.7083 149.828 33.6591 149.631 33.5608C149.435 33.4625 149.279 33.3232 149.173 33.1429C149.066 32.9627 149.009 32.7496 149.009 32.5038C149.009 32.1925 149.074 31.9139 149.21 31.6681C149.345 31.4223 149.529 31.2257 149.771 31.0864C150.008 30.9471 150.279 30.8774 150.574 30.8774C150.951 30.8774 151.25 30.984 151.475 31.197C151.7 31.41 151.811 31.705 151.811 32.0737C151.811 32.1843 151.799 32.3072 151.774 32.4465H149.5L149.496 32.4506ZM149.906 31.5124C149.73 31.6517 149.607 31.8443 149.545 32.086H151.332C151.344 31.8402 151.278 31.6476 151.135 31.5083C150.992 31.369 150.791 31.3035 150.541 31.3035C150.291 31.3035 150.082 31.3731 149.902 31.5124H149.906Z" fill="white"/>
</svg>
