<svg width="24" height="24" viewBox="0 0 24 24" fill="none" xmlns="http://www.w3.org/2000/svg">
<path fill-rule="evenodd" clip-rule="evenodd" d="M11 8.14015C10.6279 8.24804 10.2829 8.41646 9.98578 8.63934C9.43443 9.05286 9 9.70046 9 10.5C9 11.2995 9.43443 11.9471 9.98578 12.3607C10.5368 12.7739 11.2522 13 12 13C12.3568 13 12.6414 13.1097 12.8142 13.2393C12.9867 13.3687 13 13.4711 13 13.5C13 13.5289 12.9867 13.6313 12.8142 13.7607C12.6414 13.8903 12.3568 14 12 14C11.399 14 11.0831 13.7112 11.0183 13.5737L9.20922 14.4263C9.55036 15.1502 10.2295 15.6351 11 15.8585V16.5H13V15.8598C13.372 15.752 13.717 15.5835 14.0142 15.3607C14.5655 14.9471 15 14.2995 15 13.5C15 12.7005 14.5655 12.0529 14.0142 11.6393C13.4631 11.2261 12.7477 11 12 11C11.6431 11 11.3586 10.8903 11.1857 10.7607C11.0132 10.6313 11 10.5289 11 10.5C11 10.4711 11.0132 10.3687 11.1857 10.2393C11.3586 10.1097 11.6431 10 12 10C12.6009 10 12.9168 10.2888 12.9816 10.4263L14.7907 9.5737C14.4496 8.84981 13.7704 8.36492 13 8.14149V7.5H11V8.14015Z" fill="white"/>
<path fill-rule="evenodd" clip-rule="evenodd" d="M1.5 2.5C1.5 1.94772 1.94771 1.5 2.5 1.5H13.5004V3.5H3.5V20.5H20.5004V10.5H22.5004V21.5C22.5004 22.0523 22.0527 22.5 21.5004 22.5H2.5C1.94771 22.5 1.5 22.0523 1.5 21.5V2.5Z" fill="white"/>
<path fill-rule="evenodd" clip-rule="evenodd" d="M22.2071 3.20715L18.9185 6.49591H21.0001V8.49591H15.5044L15.5039 2.9959L17.5039 2.99569L17.5041 5.08188L20.7928 1.79297L22.2071 3.20715Z" fill="white"/>
</svg>
